<?xml version="1.0" encoding="utf-8"?>
<!-- Generator: Adobe Illustrator 25.3.1, SVG Export Plug-In . SVG Version: 6.00 Build 0)  -->
<svg version="1.1" id="Layer_1" xmlns="http://www.w3.org/2000/svg" xmlns:xlink="http://www.w3.org/1999/xlink" x="0px" y="0px"
	 viewBox="0 0 106.82 50" style="enable-background:new 0 0 106.82 50;" xml:space="preserve">
<style type="text/css">
	.st0{fill:#4B1DF2;}
</style>
<path class="st0" d="M6.01,12.07H2.59V8.65h3.42V12.07z M6.01,15.91H2.59v-3.38h3.42V15.91z M6.01,19.79H2.59v-3.42h3.42V19.79z
	 M6.01,23.63H2.59v-3.38h3.42V23.63z M6.01,27.46H2.59v-3.38h3.42V27.46z M6.01,31.34H2.59v-3.42h3.42V31.34z M6.01,35.18H2.59V31.8
	h3.42V35.18z M9.85,12.07H6.47V8.65h3.38V12.07z M9.85,15.91H6.47v-3.38h3.38V15.91z M9.85,19.79H6.47v-3.42h3.38V19.79z
	 M9.85,23.63H6.47v-3.38h3.38V23.63z M9.85,27.46H6.47v-3.38h3.38V27.46z M9.85,31.34H6.47v-3.42h3.38V31.34z M9.85,35.18H6.47V31.8
	h3.38V35.18z M13.72,23.63H10.3v-3.38h3.42V23.63z M17.56,23.63h-3.38v-3.38h3.38V23.63z M21.4,23.63h-3.38v-3.38h3.38V23.63z
	 M25.28,12.07h-3.42V8.65h3.42V12.07z M25.28,15.91h-3.42v-3.38h3.42V15.91z M25.28,19.79h-3.42v-3.42h3.42V19.79z M25.28,23.63
	h-3.42v-3.38h3.42V23.63z M25.28,27.46h-3.42v-3.38h3.42V27.46z M25.28,31.34h-3.42v-3.42h3.42V31.34z M25.28,35.18h-3.42V31.8h3.42
	V35.18z M29.11,12.07h-3.38V8.65h3.38V12.07z M29.11,15.91h-3.38v-3.38h3.38V15.91z M29.11,19.79h-3.38v-3.42h3.38V19.79z
	 M29.11,23.63h-3.38v-3.38h3.38V23.63z M29.11,27.46h-3.38v-3.38h3.38V27.46z M29.11,31.34h-3.38v-3.42h3.38V31.34z M29.11,35.18
	h-3.38V31.8h3.38V35.18z"/>
<path class="st0" d="M36.94,19.79h-3.42v-3.42h3.42V19.79z M36.94,23.63h-3.42v-3.38h3.42V23.63z M36.94,27.46h-3.42v-3.38h3.42
	V27.46z M36.94,42.97h-3.42v-3.42h3.42V42.97z M40.78,19.79H37.4v-3.42h3.38V19.79z M40.78,23.63H37.4v-3.38h3.38V23.63z
	 M40.78,27.46H37.4v-3.38h3.38V27.46z M40.78,31.34H37.4v-3.42h3.38V31.34z M40.78,39.05H37.4v-3.42h3.38V39.05z M40.78,42.97H37.4
	v-3.42h3.38V42.97z M44.65,31.34h-3.42v-3.42h3.42V31.34z M44.65,35.18h-3.42V31.8h3.42V35.18z M44.65,39.05h-3.42v-3.42h3.42V39.05
	z M48.49,19.79h-3.38v-3.42h3.38V19.79z M48.49,23.63h-3.38v-3.38h3.38V23.63z M48.49,27.46h-3.38v-3.38h3.38V27.46z M48.49,31.34
	h-3.38v-3.42h3.38V31.34z M48.49,35.18h-3.38V31.8h3.38V35.18z M52.33,19.79h-3.38v-3.42h3.38V19.79z M52.33,23.63h-3.38v-3.38h3.38
	V23.63z M52.33,27.46h-3.38v-3.38h3.38V27.46z"/>
<path class="st0" d="M59.47,19.79h-3.42v-3.42h3.42V19.79z M59.47,23.63h-3.42v-3.38h3.42V23.63z M59.47,27.46h-3.42v-3.38h3.42
	V27.46z M59.47,31.34h-3.42v-3.42h3.42V31.34z M63.31,19.79h-3.38v-3.42h3.38V19.79z M63.31,23.63h-3.38v-3.38h3.38V23.63z
	 M63.31,27.46h-3.38v-3.38h3.38V27.46z M63.31,31.34h-3.38v-3.42h3.38V31.34z M63.31,35.18h-3.38V31.8h3.38V35.18z M67.19,35.18
	h-3.42V31.8h3.42V35.18z M71.03,19.79h-3.38v-3.42h3.38V19.79z M71.03,23.63h-3.38v-3.38h3.38V23.63z M71.03,27.46h-3.38v-3.38h3.38
	V27.46z M71.03,31.34h-3.38v-3.42h3.38V31.34z M71.03,35.18h-3.38V31.8h3.38V35.18z M74.87,19.79h-3.38v-3.42h3.38V19.79z
	 M74.87,23.63h-3.38v-3.38h3.38V23.63z M74.87,27.46h-3.38v-3.38h3.38V27.46z M74.87,31.34h-3.38v-3.42h3.38V31.34z M74.87,35.18
	h-3.38V31.8h3.38V35.18z"/>
<path class="st0" d="M82.43,19.79h-3.42v-3.42h3.42V19.79z M82.43,23.63h-3.42v-3.38h3.42V23.63z M82.43,27.46h-3.42v-3.38h3.42
	V27.46z M82.43,31.34h-3.42v-3.42h3.42V31.34z M82.43,35.18h-3.42V31.8h3.42V35.18z M86.26,19.79h-3.38v-3.42h3.38V19.79z
	 M86.26,23.63h-3.38v-3.38h3.38V23.63z M86.26,27.46h-3.38v-3.38h3.38V27.46z M86.26,31.34h-3.38v-3.42h3.38V31.34z M86.26,35.18
	h-3.38V31.8h3.38V35.18z M90.14,19.79h-3.42v-3.42h3.42V19.79z M93.98,19.79H90.6v-3.42h3.38V19.79z M93.98,23.63H90.6v-3.38h3.38
	V23.63z M93.98,27.46H90.6v-3.38h3.38V27.46z M93.98,31.34H90.6v-3.42h3.38V31.34z M93.98,35.18H90.6V31.8h3.38V35.18z M97.82,23.63
	h-3.38v-3.38h3.38V23.63z M97.82,27.46h-3.38v-3.38h3.38V27.46z M97.82,31.34h-3.38v-3.42h3.38V31.34z M97.82,35.18h-3.38V31.8h3.38
	V35.18z"/>
<rect x="96.21" y="9.71" class="st0" width="3.38" height="3.42"/>
<rect x="101.04" y="9.71" class="st0" width="3.38" height="3.42"/>
<rect x="101.04" y="14.59" class="st0" width="3.38" height="3.42"/>
</svg>
